PathFileType	4	(X/Y/Z)	C:\Users\°ÂÌØÂü\Desktop\20210112\bx_n_5_902-Unnamed.trc
DataRate	CameraRate	NumFrames	NumMarkers	Units	OrigDataRate	OrigDataStartFrame	OrigNumFrames
50.00	50.00	       5	0	mm	50.00	273	       545
Frame#	Time	
		

273	5.440	-717.18250	156.51193	219.39818	-559.78857	99.65793	1282.77917	-786.29211	275.26276	874.79919	-675.71606	-14.29298	809.30261	-698.79022	231.94728	1056.98743	-778.11285	267.35553	743.13080	-794.20673	248.32253	638.26660	-724.11682	65.87177	219.46886	-787.54132	245.87828	572.61920	-716.09540	9.34160	525.86963	-727.76746	205.15508	538.33948	-816.02460	258.37415	494.84128	-794.56879	35.27984	173.78351	-675.14154	51.97880	161.54694	-648.43701	-68.49947	161.08022	-572.56769	279.16052	1488.62903	-771.85547	229.78360	203.01704	-605.39325	-73.53339	157.67709	-882.65930	296.16309	144.73979	-557.86755	-75.34452	1484.88928	-600.28204	27.65319	167.34641	-548.44165	-22.97792	162.19128	-518.06213	-73.15853	143.14848	-675.64777	174.14175	161.03424	-593.25708	218.91464	173.78502	-623.39838	306.63687	158.56804	-528.23669	304.06055	146.52773	-412.08453	103.82574	1756.62317	-679.80817	219.49632	798.22760	-689.48529	-13.95568	1039.66150	-797.51117	181.26527	182.18326	-556.10663	253.95055	164.21667	-660.08289	298.76007	156.67397	-888.84033	82.24922	1075.41431	-749.87451	142.43161	573.99402	-802.38995	-53.40925	481.53909	-761.42639	-24.17037	204.57286	-875.80023	-78.62018	141.04199	-758.77911	-80.49992	873.06158	-766.16901	-69.55705	757.36255	-770.03387	-43.39730	616.06848	-772.15515	-40.50006	566.62555	-752.81335	66.58051	573.22797	
274	5.460	-717.72858	157.10135	219.59428	-557.10236	99.49165	1275.91333	-790.98120	275.19260	874.46710	-680.37207	-14.60083	809.18927	-703.23431	231.73508	1055.95715	-782.12811	267.82681	742.47827	-797.45746	249.07808	638.42212	-725.02319	65.32021	219.09763	-790.47461	245.96475	571.84332	-719.00348	9.40461	525.66534	-730.37048	205.10413	538.44733	-818.45105	258.36081	494.23398	-794.58496	34.84010	173.59103	-675.27374	51.90464	161.40681	-648.36139	-68.47990	160.91161	-565.22833	278.27048	1481.23059	-771.99084	229.99048	202.86206	-605.22815	-73.39191	157.57698	-882.69690	296.16885	144.69739	-551.06213	-74.55173	1477.46509	-600.50293	27.62214	167.48965	-548.61432	-22.85927	162.16924	-517.95258	-72.74447	143.36037	-675.86951	174.15436	161.26489	-593.38861	218.84488	173.85065	-623.40875	306.67392	158.78110	-527.99860	303.89859	146.48439	-397.43237	103.83456	1745.09680	-683.93951	218.71426	798.23291	-694.41455	-13.95870	1038.17615	-797.71100	181.25510	182.07869	-556.50079	253.83855	164.03607	-660.13110	298.77246	156.76617	-893.74115	82.50122	1076.30188	-753.18311	142.55251	573.27917	-804.48413	-53.95388	481.25916	-761.85413	-24.16069	204.09456	-875.80023	-78.62018	141.04199	-763.65179	-80.81924	872.81915	-769.90985	-70.11478	756.80676	-773.39819	-43.53387	615.33740	-774.98590	-40.86330	565.86316	-756.04822	66.13061	572.95630	
275	5.480	-718.33099	157.10150	219.77744	-555.66992	99.25404	1268.38989	-795.43689	275.03302	873.91272	-684.81146	-14.79973	808.91791	-708.15112	231.83081	1055.03943	-785.98572	267.57327	741.60931	-800.51074	249.21974	637.90588	-725.24689	65.17014	219.06252	-792.91052	246.55139	572.02216	-721.36328	8.84877	525.71796	-732.65784	205.08673	538.26337	-820.79456	258.65378	493.87952	-795.03705	35.05664	173.58786	-675.20990	51.96047	161.72495	-648.41577	-68.42521	160.86082	-558.21057	276.92203	1473.23022	-772.16870	230.20949	202.96201	-605.06287	-73.34504	157.25070	-882.74158	296.20868	144.67607	-543.65125	-75.02577	1469.99646	-600.51904	27.57766	167.56104	-548.73468	-22.64365	162.29854	-517.96954	-72.73792	143.25267	-676.00519	174.37935	161.10542	-593.36096	218.95360	173.83330	-623.35443	306.61053	158.64056	-528.07440	303.87711	146.41248	-382.92630	104.47908	1733.30042	-688.79077	218.19165	798.00476	-699.39459	-14.08270	1037.09473	-797.91168	181.33600	182.12332	-556.26538	253.85109	164.19580	-660.06940	298.67487	156.52930	-897.83844	82.23383	1076.87402	-755.81116	142.90884	572.76074	-806.50482	-53.77520	480.14709	-761.88367	-24.30539	203.62140	-875.85034	-78.68372	141.27127	-768.53241	-81.32542	872.51532	-774.22382	-70.49838	756.33447	-776.46069	-43.63873	614.99213	-777.55621	-40.94506	565.94672	-758.74963	66.16424	572.44098	
276	5.500	-718.40540	157.06975	219.78749	-553.51465	99.11730	1260.53906	-800.29962	275.69983	873.85779	-689.15723	-14.09283	808.96979	-712.66937	231.26141	1053.49182	-789.82837	268.07928	741.18011	-803.72919	249.06570	636.72534	-725.60443	65.16079	219.14963	-795.34204	245.97629	570.69763	-723.69061	9.13467	525.75885	-734.99017	205.15796	538.43109	-822.63831	258.84424	493.02100	-795.09039	34.66314	173.51884	-674.99774	51.88677	161.64070	-648.36139	-68.47990	160.91161	-550.84479	276.87964	1465.55469	-771.77008	230.20290	202.80685	-605.37415	-73.44125	157.56168	-882.66290	296.19077	144.75964	-536.25104	-75.25564	1461.74121	-600.46063	27.89745	167.39987	-548.71387	-22.69486	162.26608	-518.05261	-72.82889	143.23935	-676.10815	174.42287	161.66829	-593.38861	218.84488	173.85065	-623.35443	306.61053	158.64056	-528.12286	303.98935	146.58301	-369.21689	104.53876	1720.40588	-693.04230	218.26604	798.38879	-704.30365	-14.08803	1035.17017	-798.21204	181.29796	182.26973	-556.01575	253.59178	164.13324	-660.08289	298.76007	156.67397	-902.90527	81.52216	1077.45032	-758.75952	142.64301	572.57941	-808.31403	-54.47350	479.86856	-761.95538	-24.52944	203.62599	-875.95618	-78.67986	141.17555	-772.80768	-81.71780	871.90472	-779.30530	-70.08220	755.03125	-779.03198	-44.11514	614.81897	-780.09863	-41.20935	565.65216	-761.54083	66.08677	572.40479	
277	5.520	-718.75354	156.99480	220.21274	-552.06238	98.95056	1252.33691	-804.87885	275.30969	872.98590	-693.26251	-15.06982	809.10663	-717.18109	230.70209	1051.92737	-793.40729	268.56195	740.69037	-806.64142	249.46350	636.78674	-725.73474	65.13572	219.23390	-797.58557	245.94115	570.54547	-725.75140	8.57662	525.92120	-737.49243	205.20152	537.93195	-824.57275	258.97571	492.62509	-795.09625	34.73843	173.50409	-675.31537	51.86206	161.82532	-648.32648	-68.54012	160.89090	-543.84796	276.51587	1457.81445	-772.02283	230.18044	202.49165	-605.33533	-73.60840	157.67285	-882.63379	295.99463	144.58681	-528.89777	-75.07954	1453.03149	-600.51996	27.78639	167.38046	-548.73145	-22.71614	162.37785	-517.99500	-72.84245	143.09137	-676.04944	174.54633	161.71394	-593.58112	218.99976	173.81787	-623.39838	306.63687	158.56804	-528.07666	304.04572	146.53712	-355.98135	104.91863	1707.71106	-697.19781	218.40820	798.88684	-708.95605	-14.50493	1033.51855	-798.41980	181.76251	181.96826	-556.37347	253.63145	164.28247	-660.08289	298.76007	156.67397	-906.28253	81.51151	1077.88721	-761.42139	142.28284	572.42822	-810.41693	-54.71168	479.55933	-761.95648	-24.67059	203.58167	-875.80023	-78.62018	141.04199	-777.42523	-82.15765	871.58356	-782.46613	-70.40055	754.65948	-781.78442	-44.20999	614.29517	-782.26324	-41.47761	564.90741	-764.04901	65.91859	572.20001	
